<<<<<<< HEAD
<mxfile modified="2022-04-19T16:02:52.175Z" host="app.diagrams.net" agent="5.0 (Windows NT 10.0; Win64; x64) AppleWebKit/537.36 (KHTML, like Gecko) Chrome/100.0.4896.75 Safari/537.36" etag="J4NARp3gWDPs7_WyU24C" version="17.4.5" type="device" pages="2"><diagram id="1r2UlWtvAORndmBYrAt0" name="as is - central ledger">7VrbcqM4EP0aP8YF4upHx4lntzbZzW5SNTP7siVAYM1gxIKc2PP1I4FkLsLxDTxJVZgqD2rdoE+f7laTkTFbrj9lMF3ckwDFI6AF65FxMwLAmOjslws2pQAYWimIMhyUIr0SPOIfSAjlsBUOUN4YSAmJKU6bQp8kCfJpQwazjLw0h4Ukbu6awggpgkcfxqr0Mw7oopS6llbJf0M4WsiddU30LKEcLAT5AgbkpSYybkfGLCOElnfL9QzFXHdSL+W8+Y7e7YNlKKGHTHhIbv+wN0/LK/Bj8eePxAjvn36/Eqs8w3glXlg8LN1IDWRklQSIL6KNjOuXBaboMYU+731hkDPZgi5j1tLZbYjjeEZikhVzjbk1M4HF5DnNyHdU67GLi88gCa3Jy4vJCdsDU241Nt9XfVv56CijaF0Tibf/hMgS0WzDhohe0xFISFOUUL1UwG7tblEHVUIIhTFF27UrfbMbofIj1A+GVX9o8X99qD+GHoqvof89Kp5HzkhIgvoBR3ecsbUfHttS4QFgMhA8hoIGCph3EE2S0QWJSALj20p63cSrGnNHSCpQ+oYo3QhXB1eUNDFEa0y/8OljS7S+1npu1mLlorERjZ0A8Od9Vf0ZiiHFz01v16VIMfWBYLbFFjbDcceT2uU2IDRMt7lgTlaZj8QadV913rIUZhGiyrIF5tt3Pd0MTIWlM6bnDPKJjyh7xj6LUG1LYXZPm8A2SSioU2esEMEYRwlr+mwTxOTXnEWYhaSp6FjiIChsrcsbtOyvSWPOdmF4uiXb4pn13TQPUAhXMe2H6cBs8xwoPNeNDjc8mBe2FHxvIIUezDms2tUI2HDJVZt4eVrowC50kacwaWBu/7/iwbzQ6lVeqHnKBuggXVed7C6itVX44NNXefz7bsT1Ip6w/GWSB5LTKENFty2Qm5dbNbdn4vI9pPi9mTE43Iz7i1bmpG3DE9WG7UvasH1WqNLPC1Xy/msjbHWHKu45N1/qjdos3qymFS05r435ThTLGPOKqpxyXBk0XsuN7b5j6FkIO4qXuiffYMyxAto0gCln2XnZY0vFXawTS2s71X84iYxWOm5ZMgOsswh0sMgcikWuouNpMYnHg3dHsCttrOlNktmGvYdmResBZZgplHvt19PLvVyTx6n9ZDuQa8J22LsZriPgOjWHlUNIGOZokMxxotjTA+RBELOQS9+AXR1zxjjVcV/CeMBx1qONdVdmnW/XeOTrN6oDjaTR3x7cq7zQ0Iprd8JZT/eqc8wd1122MyssxV7WkT42s8oeqxeBhdzA7KpeuMAzttWLPkMSsFsxybQPjUmWu9t0zopJeleN7nQzuLn/9xLghWEIfL8LvMD2bMvu6Sxp2w28DKDWjHTdvGAeLl3RYBVVfTKbTLr0+gYqqobZof4usrjGUOo3FPX/gwLMz/GzeJV3pcjv8ITbA3JuGzm9gziXPMDqapXtHDcnUD81bu0hZb6AKe9ZriP+1WvswRz7Y5wTf+VxvNndNIniqs7WIvFM04xpJ4nnxesoJA6Lqx/WWprFDgJN+G1Hgd90x05Htd0CQxmA9Ssz4WNOWP2VImSJYX+Gqx2Y4V6mFiGfu0bWz9O5gh/M0/KbbIjXHKTrtHawZNvgNEe1s2YdF8W3bj+fcgQCmC+2rjPnrjOJngrEeaDDy+Kjrvz/Bi8j9pYx9tgv9Ll2/gtwxp6McFXMQ3b/AuN4nD9Hx6B7xMetSTut1DrSShOMHZVvzmAOVy0o9XG8ON7XSmfqb2LMyJztz4m8kvV33lawrfX+taJsFVkIVpJSPwBuZ1LqTLzC7zJ/HmDU8r3Q0vrKmNx20UuNu25XxWsiDaZ/O1CLXh92MLgdtD2C/evtQC1WfdjB0HZgvT1/AIYpO33Ywat2cEl/wJrVn52V1crqb/eM258=</diagram><diagram id="xXD5DnYFGBBulUnZPJKQ" name="Original-v1.0">7Vpbd5s4EP41fkwON4H96Nhxu91k0113T9t9k0FgtbJFQU7s/vpKIAwCkRAbmmx33XMaNLogzTczmgsje7bZv0lgvL6lASIjywj2I3s+sqyJZfD/BeGQE4Bj5oQowUFOqhCW+DuSRDkv2uEApcpARilhOFaJPt1ukc8UGkwS+qAOCylR3xrDCDUISx+SJvUjDthaUk13Una8RThay1ePLS/v2MBisDxJuoYBfaiQ7OuRPUsoZfnTZj9DRPCu4Es+b9HSe9xYgrasy4Rv9O3db7//ffcuiuI43X+YIvzhwnXzZe4h2ckTy92yQ8GChO62ARKrGCP76mGNGVrG0Be9DxxzTluzDeEtkz+GmJAZJTTJ5toLMHMswOkpS+hXVOlxs5+YQbesQs9/nE75OzATYuOK9zaPKzlwjxKG9hWSPP4bRDeIJQc+RPZ6EwmFlEULyPZDiazlgZy2roBqFgOhlKbouHbJcP4gef4c/tvD8j8E4t8r4b9jeZdARcCZNBFwNQjY9lAIjDUAuIRJxmSWpeCN+20nlJWzwjayX5XkRuLvgnB7xSfNaIKKdfi28qXyIb3iGwA0DhwdvmNrZWf49gAcsFTYbLepOGZh56qwuUOhVlwPGthWJaNPx9HnzEoguSAoiFDSiuSRvGpFl5v9WDz6B4I5zMnTEK9yebhZHQnQ/xplUnK3Y3wV1KLroR9YY50sBN5kZQjhihIYYKToexhCYPSk4GOnJieGRk4MjZyMh5KT4gwVQASiS9mkCVvTiG4huS6pV6VCCi6XY24ojSXxC2LsIL0VuGNURRDtMfsk9PnSA7L5Waq3eJ7vq42DbKQMJmwqXBYhLQSmKfYL8gKTYu1WmFK6S3x5RiBxEGd9FLgEEcjwvers6FCQU99TnClT243q1YDkm48Qk7NKLPkx4aEyLBYD0vb3uIbeAC06ji/2VYpSvoNSsI486SRrTtNtmmYD5pBBrcTdwBV3jBUpgQRHW4E1RzKzC0LRMHc9p7Jjg4MgF0iU4u9wla0nREWyiy8OrkZgrpWKR9WhodJHB1q+RfFRdap+YVyatmWrqOStU2WqGELDMEVsVFf95yGkvzXAIJf9NI6Pl0+iuRz+7be/qSq5rXGbf+7tb43PsurGuVa9atTNR416K/uHtsyuNVFAc8waGPl10bDMz1+oxcT3pbOu09DZWe6cceISJffYR2lDHLhoMxU9VUW2VHhRij5JUnerrNPVmpCpIZSwA1K6TKdoyz1rwvnnK6pRU1RTo6i2RlGtwcJbrwHe/EriJtzq/1ETTnM9KjYnGty8gXDTRlIvYFy5Sh8+FSZUND6XplY0S/uatbResxSGVlCqLrJeXuXFktu0Dp5Ef2a8K17NhNEt/QKJ4DP3RAIYM41iPc/JqAi8NUgi6CjML+FROLqUW+6rBfi+7r5pHTrNuB2pUwguKLeH5Z83lellT3Pse5qyiPv76aPjObH6Qr0Z7Wo7K9DrJKPVklLeE5JM8dachrY9JRHsWkxp65IImhxhH0kE0CEf+4qtIdoGp9hC+8Wsnt7nPKaAC/tQTyt0dV6dcT3fPJjzCvqNLRvZzNLpvVFykloDdZz1Bw3Qu+UvHZ1atbvkxXPTbr8lhY/Txc9AKwxDy/d1aAXuygU9oeU4NbSKjHEFLUdj2+sGoDew7GZ4eQ5Y89t/fh2wQA0sR3cTm04TrT6KdV6HuOSsyrQ5mU0mOha+gsr0UU2erEz3YcU8s8Hqv1CAuQtqzMgu1QUU/9FIXfUmHE+jD0PlVzyrV0MlAT7VL3hC14qi52Yfia+CLlcwxf4lTqm/Wwlo+dN0G+XAAI1uzgzDnmp1c5Edp6GbYfbrKQDxVJiBJo2m08U+7ihPdx3V44/SyS/LhE9XHx9PVJ8acai10lbu64qT1XCj4N3QkQWoBZegHhB0jSzGtVwrqEeffVU+a8UXoH7ldXYl02uGLe+hMMg4htk+nqxo1ouTp1U4KeOw0u2orWxSKIa+TNlJvc8UnbE64ZQqJW+W3/vlw8uPJu3rHw==</diagram></mxfile>
=======
<mxfile modified="2022-04-19T16:11:19.580Z" host="drawio-plugin" agent="5.0 (X11; Linux x86_64) AppleWebKit/537.36 (KHTML, like Gecko) Chrome/97.0.4692.45 Safari/537.36" etag="O6Or0HbmOVbVeNk92hM7" version="15.5.4" type="embed" pages="2"><diagram id="1r2UlWtvAORndmBYrAt0" name="as is - central ledger"><mxGraphModel dx="1549" dy="548" grid="1" gridSize="10" guides="1" tooltips="1" connect="1" arrows="1" fold="1" page="1" pageScale="1" pageWidth="850" pageHeight="1100" math="0" shadow="0"><root><mxCell id="0"/><mxCell id="1" parent="0"/><mxCell id="PnEK6yTm-2zhNzn3fMTI-1" value="" style="rounded=0;whiteSpace=wrap;html=1;fillColor=#F5C425;strokeColor=#666666;fontColor=#333333;opacity=60;" parent="1" vertex="1"><mxGeometry x="470" y="200" width="210" height="120" as="geometry"/></mxCell><mxCell id="PnEK6yTm-2zhNzn3fMTI-2" value="" style="rounded=0;whiteSpace=wrap;html=1;fillColor=#f5f5f5;strokeColor=#666666;fontColor=#333333;opacity=60;labelBackgroundColor=none;" parent="1" vertex="1"><mxGeometry x="177.5" y="200" width="265" height="229" as="geometry"/></mxCell><mxCell id="PnEK6yTm-2zhNzn3fMTI-3" style="edgeStyle=orthogonalEdgeStyle;rounded=0;orthogonalLoop=1;jettySize=auto;html=1;exitX=0.5;exitY=1;exitDx=0;exitDy=0;" parent="1" edge="1"><mxGeometry relative="1" as="geometry"><mxPoint x="378.9999999999998" y="348" as="sourcePoint"/><mxPoint x="378.9999999999998" y="348" as="targetPoint"/></mxGeometry></mxCell><mxCell id="PnEK6yTm-2zhNzn3fMTI-4" value="Central Services" style="text;html=1;strokeColor=none;fillColor=none;align=center;verticalAlign=middle;whiteSpace=wrap;rounded=0;opacity=60;fontSize=15;fontStyle=1;labelBackgroundColor=default;" parent="1" vertex="1"><mxGeometry x="245" y="202" width="130" height="20" as="geometry"/></mxCell><mxCell id="PnEK6yTm-2zhNzn3fMTI-5" value="Databases -&amp;nbsp;&lt;span style=&quot;font-size: 12px&quot;&gt;&lt;font style=&quot;font-size: 12px&quot;&gt;SQL &amp;amp; PostgreSQL&lt;/font&gt;&lt;/span&gt;" style="text;html=1;strokeColor=none;fillColor=none;align=center;verticalAlign=middle;whiteSpace=wrap;rounded=0;opacity=60;fontSize=12;fontStyle=1;labelBackgroundColor=none;" parent="1" vertex="1"><mxGeometry x="495" y="209" width="160" height="20" as="geometry"/></mxCell><mxCell id="PnEK6yTm-2zhNzn3fMTI-6" style="edgeStyle=orthogonalEdgeStyle;rounded=1;orthogonalLoop=1;jettySize=auto;html=1;exitX=1;exitY=0.5;exitDx=0;exitDy=0;entryX=0;entryY=0.5;entryDx=0;entryDy=0;fontSize=12;" parent="1" source="PnEK6yTm-2zhNzn3fMTI-7" target="PnEK6yTm-2zhNzn3fMTI-10" edge="1"><mxGeometry relative="1" as="geometry"><mxPoint x="190" y="275.5" as="targetPoint"/></mxGeometry></mxCell><mxCell id="PnEK6yTm-2zhNzn3fMTI-7" value="Mojaloop Adapter" style="rounded=0;whiteSpace=wrap;html=1;fontSize=12;opacity=60;fontStyle=0" parent="1" vertex="1"><mxGeometry x="30" y="255.5" width="120" height="40" as="geometry"/></mxCell><mxCell id="PnEK6yTm-2zhNzn3fMTI-8" value="All Data" style="edgeStyle=orthogonalEdgeStyle;rounded=1;orthogonalLoop=1;jettySize=auto;html=1;exitX=1;exitY=0.5;exitDx=0;exitDy=0;entryX=-0.01;entryY=0.636;entryDx=0;entryDy=0;entryPerimeter=0;" parent="1" source="PnEK6yTm-2zhNzn3fMTI-10" target="PnEK6yTm-2zhNzn3fMTI-1" edge="1"><mxGeometry x="-0.3878" relative="1" as="geometry"><mxPoint as="offset"/></mxGeometry></mxCell><mxCell id="PnEK6yTm-2zhNzn3fMTI-9" value="Participant Data" style="edgeStyle=orthogonalEdgeStyle;rounded=0;orthogonalLoop=1;jettySize=auto;html=1;exitX=0.5;exitY=1;exitDx=0;exitDy=0;entryX=0;entryY=0.5;entryDx=0;entryDy=0;" parent="1" source="PnEK6yTm-2zhNzn3fMTI-10" target="PnEK6yTm-2zhNzn3fMTI-12" edge="1"><mxGeometry x="0.1802" relative="1" as="geometry"><mxPoint as="offset"/></mxGeometry></mxCell><mxCell id="PnEK6yTm-2zhNzn3fMTI-10" value="&lt;font color=&quot;#000000&quot;&gt;&lt;span&gt;Central Ledger&lt;/span&gt;&lt;br&gt;&lt;/font&gt;" style="rounded=0;whiteSpace=wrap;html=1;fillColor=#d5e8d4;strokeColor=#82b366;fontStyle=0" parent="1" vertex="1"><mxGeometry x="260" y="246.5" width="120" height="58" as="geometry"/></mxCell><mxCell id="PnEK6yTm-2zhNzn3fMTI-12" value="" style="rounded=0;whiteSpace=wrap;html=1;fillColor=#F19C99;strokeColor=#666666;fontColor=#333333;opacity=60;" parent="1" vertex="1"><mxGeometry x="470" y="340" width="120" height="83" as="geometry"/></mxCell><mxCell id="PnEK6yTm-2zhNzn3fMTI-13" value="Redis Cluster" style="text;html=1;strokeColor=none;fillColor=none;align=center;verticalAlign=middle;whiteSpace=wrap;rounded=0;opacity=60;fontSize=12;fontStyle=1" parent="1" vertex="1"><mxGeometry x="480" y="341" width="110" height="20" as="geometry"/></mxCell><mxCell id="PnEK6yTm-2zhNzn3fMTI-14" value="&lt;font color=&quot;#000000&quot;&gt;Redis&lt;br&gt;&lt;/font&gt;" style="whiteSpace=wrap;html=1;shape=mxgraph.basic.isocube;isoAngle=15;fillColor=#FC003A;strokeColor=#6F0000;fontColor=#ffffff;" parent="1" vertex="1"><mxGeometry x="505.63" y="367" width="48.75" height="52" as="geometry"/></mxCell><mxCell id="PnEK6yTm-2zhNzn3fMTI-17" value="&lt;font color=&quot;#000000&quot;&gt;&lt;br&gt;&lt;/font&gt;" style="shape=cylinder;whiteSpace=wrap;html=1;boundedLbl=1;backgroundOutline=1;fillColor=#ffcd28;strokeColor=#d79b00;gradientColor=#ffa500;" parent="1" vertex="1"><mxGeometry x="480" y="251" width="80" height="49.5" as="geometry"/></mxCell><mxCell id="PnEK6yTm-2zhNzn3fMTI-18" value="&lt;font color=&quot;#000000&quot;&gt;&lt;br&gt;&lt;/font&gt;" style="shape=cylinder;whiteSpace=wrap;html=1;boundedLbl=1;backgroundOutline=1;fillColor=#ffcd28;strokeColor=#d79b00;gradientColor=#ffa500;" parent="1" vertex="1"><mxGeometry x="490" y="261" width="80" height="49.5" as="geometry"/></mxCell><mxCell id="PnEK6yTm-2zhNzn3fMTI-19" value="&lt;font color=&quot;#000000&quot;&gt;&lt;br&gt;&lt;/font&gt;" style="shape=cylinder;whiteSpace=wrap;html=1;boundedLbl=1;backgroundOutline=1;fillColor=#ffcd28;strokeColor=#d79b00;gradientColor=#ffa500;" parent="1" vertex="1"><mxGeometry x="580" y="251" width="80" height="49.5" as="geometry"/></mxCell><mxCell id="PnEK6yTm-2zhNzn3fMTI-20" value="&lt;font color=&quot;#000000&quot;&gt;&lt;br&gt;&lt;/font&gt;" style="shape=cylinder;whiteSpace=wrap;html=1;boundedLbl=1;backgroundOutline=1;fillColor=#ffcd28;strokeColor=#d79b00;gradientColor=#ffa500;" parent="1" vertex="1"><mxGeometry x="590" y="261" width="80" height="49.5" as="geometry"/></mxCell></root></mxGraphModel></diagram><diagram id="xXD5DnYFGBBulUnZPJKQ" name="Original-v1.0"><mxGraphModel dx="920" dy="541" grid="1" gridSize="10" guides="1" tooltips="1" connect="1" arrows="1" fold="1" page="1" pageScale="1" pageWidth="1169" pageHeight="827" math="0" shadow="0"><root><mxCell id="0"/><mxCell id="1" parent="0"/><mxCell id="qoHOIKUOJggppsxTAeiT-66" value="" style="rounded=0;whiteSpace=wrap;html=1;fillColor=#F5C425;strokeColor=#666666;fontColor=#333333;opacity=60;" parent="1" vertex="1"><mxGeometry x="790" y="250" width="275" height="150" as="geometry"/></mxCell><mxCell id="qoHOIKUOJggppsxTAeiT-63" value="" style="rounded=0;whiteSpace=wrap;html=1;fillColor=#f5f5f5;strokeColor=#666666;fontColor=#333333;opacity=60;" parent="1" vertex="1"><mxGeometry x="427.5" y="249" width="265" height="330" as="geometry"/></mxCell><mxCell id="qoHOIKUOJggppsxTAeiT-8" value="&lt;font color=&quot;#000000&quot;&gt;Fluid Core&lt;/font&gt;" style="rounded=0;whiteSpace=wrap;html=1;fillColor=#d5e8d4;strokeColor=#82b366;" parent="1" vertex="1"><mxGeometry x="525" y="360" width="120" height="60" as="geometry"/></mxCell><mxCell id="qoHOIKUOJggppsxTAeiT-10" value="&lt;b&gt;&lt;font color=&quot;#000000&quot;&gt;central-ledger&lt;/font&gt;&lt;/b&gt;" style="shape=cylinder;whiteSpace=wrap;html=1;boundedLbl=1;backgroundOutline=1;fillColor=#ffcd28;strokeColor=#d79b00;gradientColor=#ffa500;" parent="1" vertex="1"><mxGeometry x="845" y="300" width="100" height="80" as="geometry"/></mxCell><mxCell id="qoHOIKUOJggppsxTAeiT-21" style="edgeStyle=orthogonalEdgeStyle;rounded=1;orthogonalLoop=1;jettySize=auto;html=1;exitX=0.75;exitY=0;exitDx=0;exitDy=0;startArrow=classic;startFill=1;" parent="1" source="55" edge="1"><mxGeometry relative="1" as="geometry"><mxPoint x="790" y="270" as="targetPoint"/><Array as="points"><mxPoint x="605" y="360"/><mxPoint x="605" y="270"/></Array></mxGeometry></mxCell><mxCell id="46" value="All Data" style="edgeLabel;html=1;align=center;verticalAlign=middle;resizable=0;points=[];" parent="qoHOIKUOJggppsxTAeiT-21" vertex="1" connectable="0"><mxGeometry x="-0.1323" y="3" relative="1" as="geometry"><mxPoint as="offset"/></mxGeometry></mxCell><mxCell id="qoHOIKUOJggppsxTAeiT-15" value="&lt;font color=&quot;#000000&quot;&gt;Fluid App&lt;br&gt;&lt;/font&gt;" style="rounded=0;whiteSpace=wrap;html=1;fillColor=#d5e8d4;strokeColor=#82b366;" parent="1" vertex="1"><mxGeometry x="510" y="350" width="120" height="60" as="geometry"/></mxCell><mxCell id="qoHOIKUOJggppsxTAeiT-28" style="edgeStyle=orthogonalEdgeStyle;rounded=0;orthogonalLoop=1;jettySize=auto;html=1;exitX=0.5;exitY=1;exitDx=0;exitDy=0;" parent="1" edge="1"><mxGeometry relative="1" as="geometry"><mxPoint x="629" y="410" as="sourcePoint"/><mxPoint x="629" y="410" as="targetPoint"/></mxGeometry></mxCell><mxCell id="qoHOIKUOJggppsxTAeiT-64" value="Central Services" style="text;html=1;strokeColor=none;fillColor=none;align=center;verticalAlign=middle;whiteSpace=wrap;rounded=0;opacity=60;fontSize=14;fontStyle=1" parent="1" vertex="1"><mxGeometry x="500" y="310" width="130" height="20" as="geometry"/></mxCell><mxCell id="qoHOIKUOJggppsxTAeiT-67" value="DB Server" style="text;html=1;strokeColor=none;fillColor=none;align=center;verticalAlign=middle;whiteSpace=wrap;rounded=0;opacity=60;fontSize=14;fontStyle=1" parent="1" vertex="1"><mxGeometry x="847.5" y="190" width="170" height="20" as="geometry"/></mxCell><mxCell id="10" value="" style="edgeStyle=orthogonalEdgeStyle;rounded=0;orthogonalLoop=1;jettySize=auto;html=1;entryX=0;entryY=0.5;entryDx=0;entryDy=0;startArrow=none;" parent="1" source="qoHOIKUOJggppsxTAeiT-68" target="qoHOIKUOJggppsxTAeiT-15" edge="1"><mxGeometry relative="1" as="geometry"/></mxCell><mxCell id="3" value="Mojaloop Adapter" style="rounded=0;whiteSpace=wrap;html=1;fontSize=12;opacity=60;" parent="1" vertex="1"><mxGeometry x="170" y="350" width="120" height="60" as="geometry"/></mxCell><mxCell id="43" value="&lt;div&gt;&lt;br&gt;&lt;/div&gt;&lt;ul&gt;&lt;li&gt;MySQL&lt;/li&gt;&lt;li&gt;Postgress&lt;/li&gt;&lt;/ul&gt;" style="text;strokeColor=none;fillColor=none;html=1;whiteSpace=wrap;verticalAlign=middle;overflow=hidden;" parent="1" vertex="1"><mxGeometry x="830" y="230" width="105" height="80" as="geometry"/></mxCell><mxCell id="53" value="" style="edgeStyle=orthogonalEdgeStyle;rounded=0;orthogonalLoop=1;jettySize=auto;html=1;entryX=0;entryY=0.5;entryDx=0;entryDy=0;endArrow=none;" parent="1" source="3" target="qoHOIKUOJggppsxTAeiT-15" edge="1"><mxGeometry relative="1" as="geometry"><mxPoint x="265" y="370" as="sourcePoint"/><mxPoint x="485" y="240" as="targetPoint"/></mxGeometry></mxCell><mxCell id="55" value="&lt;font color=&quot;#000000&quot;&gt;&lt;b&gt;Central Ledger&lt;br&gt;&lt;/b&gt;NodeJS&lt;br&gt;&lt;/font&gt;" style="rounded=0;whiteSpace=wrap;html=1;fillColor=#d5e8d4;strokeColor=#82b366;" parent="1" vertex="1"><mxGeometry x="520" y="360" width="120" height="60" as="geometry"/></mxCell><mxCell id="qoHOIKUOJggppsxTAeiT-68" value="&lt;font color=&quot;#000000&quot;&gt;WAF&lt;/font&gt;" style="rounded=0;whiteSpace=wrap;html=1;fillColor=#fff2cc;strokeColor=#d6b656;" parent="1" vertex="1"><mxGeometry x="440" y="345" width="45" height="70" as="geometry"/></mxCell><mxCell id="qoHOIKUOJggppsxTAeiT-34" value="&lt;font color=&quot;#000000&quot;&gt;DMZ&lt;/font&gt;" style="rounded=0;whiteSpace=wrap;html=1;fillColor=#fff2cc;strokeColor=#d6b656;" parent="1" vertex="1"><mxGeometry x="540" y="430" width="114" height="30" as="geometry"/></mxCell><mxCell id="70" value="" style="rounded=0;whiteSpace=wrap;html=1;fillColor=#F19C99;strokeColor=#666666;fontColor=#333333;opacity=60;" parent="1" vertex="1"><mxGeometry x="790" y="440" width="275" height="160" as="geometry"/></mxCell><mxCell id="71" value="Redis Cluster" style="text;html=1;strokeColor=none;fillColor=none;align=center;verticalAlign=middle;whiteSpace=wrap;rounded=0;opacity=60;fontSize=14;fontStyle=1" parent="1" vertex="1"><mxGeometry x="845" y="470" width="130" height="20" as="geometry"/></mxCell><mxCell id="72" value="&lt;font color=&quot;#000000&quot;&gt;Redis&lt;br&gt;&lt;/font&gt;" style="whiteSpace=wrap;html=1;shape=mxgraph.basic.isocube;isoAngle=15;fillColor=#FC003A;strokeColor=#6F0000;fontColor=#ffffff;" parent="1" vertex="1"><mxGeometry x="875" y="510" width="75" height="70" as="geometry"/></mxCell><mxCell id="74" value="" style="endArrow=classic;html=1;exitX=0.75;exitY=1;exitDx=0;exitDy=0;entryX=0;entryY=0.5;entryDx=0;entryDy=0;rounded=1;" parent="1" source="55" target="70" edge="1"><mxGeometry relative="1" as="geometry"><mxPoint x="530" y="540" as="sourcePoint"/><mxPoint x="800" y="580" as="targetPoint"/><Array as="points"><mxPoint x="610" y="520"/></Array></mxGeometry></mxCell><mxCell id="75" value="Participant Data" style="edgeLabel;resizable=0;html=1;align=center;verticalAlign=middle;rotation=0;" parent="74" connectable="0" vertex="1"><mxGeometry relative="1" as="geometry"><mxPoint x="8" as="offset"/></mxGeometry></mxCell></root></mxGraphModel></diagram></mxfile>
>>>>>>> 248347b35608ae404328a0652fbfac08340fa550
